<svg width="16" height="16" viewBox="0 0 16 16" fill="none" xmlns="http://www.w3.org/2000/svg">
<g clip-path="url(#clip0_17_1175)">
<path d="M15.6663 4.33821C15.5758 4.01503 15.3993 3.72244 15.1557 3.49155C14.9052 3.25355 14.5982 3.0833 14.2637 2.99688C13.0117 2.66688 7.99568 2.66688 7.99568 2.66688C5.90457 2.64309 3.81396 2.74773 1.73568 2.98021C1.40114 3.07302 1.09472 3.24707 0.843679 3.48688C0.597012 3.72421 0.418346 4.01688 0.325012 4.33755C0.100808 5.54538 -0.00812629 6.77178 -0.000320966 8.00021C-0.00832097 9.22755 0.100346 10.4535 0.325012 11.6629C0.416346 11.9822 0.594346 12.2735 0.841679 12.5089C1.08901 12.7442 1.39701 12.9142 1.73568 13.0042C3.00435 13.3335 7.99568 13.3335 7.99568 13.3335C10.0895 13.3574 12.1827 13.2527 14.2637 13.0202C14.5982 12.9338 14.9052 12.7635 15.1557 12.5255C15.4023 12.2902 15.5777 11.9975 15.6657 11.6789C15.8957 10.4715 16.0076 9.24461 15.9997 8.01555C16.017 6.78128 15.9053 5.54859 15.6663 4.33755V4.33821ZM6.40101 10.2829V5.71821L10.5743 8.00088L6.40101 10.2829Z" fill="white"/>
</g>
<defs>
<clipPath id="clip0_17_1175">
<rect width="16" height="16" fill="white"/>
</clipPath>
</defs>
</svg>
